<?xml version="1.0" ?><svg xmlns="http://www.w3.org/2000/svg" xmlns:xlink="http://www.w3.org/1999/xlink" version="1.1" viewBox="0 0 512 512" style="enable-background:new 0 0 512 512;" xml:space="preserve"><g id="_x33_7_x2C__bass_guitar_x2C__electric_guitar_x2C__rock_x2C__rock_guitar_x2C__music_and_multimedia_x2C__string_instrument"><g><path style="fill:#DC5461;" d="M350.862,126.895c-3.858-3.952-10.189-4.031-14.142-0.173c-3.952,3.857-4.03,10.188-0.173,14.142    l35.079,35.947c3.855,3.95,10.187,4.032,14.142,0.173c3.952-3.857,4.03-10.188,0.173-14.142L350.862,126.895z"/><path style="fill:#DC5461;" d="M300.535,176.006c-3.857-3.952-10.189-4.031-14.142-0.173c-3.952,3.857-4.029,10.188-0.173,14.142    l35.08,35.947c3.855,3.95,10.187,4.032,14.142,0.173c3.952-3.857,4.029-10.188,0.173-14.142L300.535,176.006z"/><path style="fill:#DC5461;" d="M250.209,225.118c-3.857-3.953-10.188-4.03-14.142-0.173c-3.952,3.857-4.03,10.188-0.173,14.142    l35.079,35.947c3.855,3.95,10.187,4.032,14.142,0.173c3.952-3.857,4.03-10.188,0.173-14.142L250.209,225.118z"/><path style="fill:#DC5461;" d="M199.882,274.229c-3.857-3.952-10.189-4.031-14.142-0.173c-3.952,3.857-4.03,10.188-0.173,14.142    l35.08,35.948c3.855,3.95,10.187,4.032,14.142,0.173c3.952-3.857,4.03-10.188,0.173-14.142L199.882,274.229z"/><path style="fill:#DC5461;" d="M106.593,351.231c-11.589-11.874-30.678-12.109-42.552-0.52    c-11.876,11.587-12.109,30.676-0.521,42.552l49.112,50.326c11.59,11.878,30.622,12.166,42.551,0.521    c11.876-11.588,12.109-30.677,0.521-42.553L106.593,351.231z M141.215,429.796c-3.996,3.899-10.382,3.809-14.269-0.174    c0-0.001,0-0.001,0-0.001l-49.112-50.326c-3.886-3.982-3.808-10.384,0.175-14.27c3.981-3.885,10.383-3.811,14.27,0.174    l49.111,50.325C145.275,419.508,145.197,425.91,141.215,429.796z"/><g><path style="fill:#283954;" d="M436.268,113.73c-3.857-3.952-10.188-4.03-14.142-0.173L177.651,352.132l-21.111-21.634     c7.291-7.115,243.854-237.967,244.476-238.574c3.952-3.857,4.03-10.188,0.173-14.142c-3.858-3.952-10.189-4.03-14.142-0.173     l-129.48,126.354c2.576-17.029,9.155-33.316,19.325-47.368c10.734-14.853,3.708-36.152-14.296-41.063     c-25.099-6.867-51.916-4.574-75.515,6.456c-5.003,2.339-7.163,8.291-4.825,13.294c2.339,5.003,8.291,7.161,13.294,4.825     c20.504-9.584,40.397-10.632,62.144-5.175c4.132,1.305,5.529,6.431,2.992,9.942c-16.696,23.069-25.228,51.214-24.273,79.731     l-100.999,98.561c-3.95,3.857-4.028,10.189-0.173,14.142l35.08,35.947c3.855,3.95,10.187,4.032,14.142,0.173l77.7-75.824     c15.249,20.243,36.111,35.87,61.079,44.423c6.015,2.063,6.757,7.508,6.841,9.127c0.088,1.698-0.098,7.459-6.179,10.279     c-5.572,2.58-11.431,4.647-17.413,6.144c-25.059,6.265-44.622,25.729-51.333,50.107c-7.223,26.136-25.002,47.995-48.78,59.973     c-4.932,2.484-6.916,8.497-4.432,13.43c2.492,4.948,8.509,6.908,13.43,4.432c28.811-14.512,50.337-40.94,59.063-72.517     c4.824-17.526,18.936-31.531,36.905-36.022c7.2-1.801,14.254-4.29,20.97-7.399c11.432-5.302,18.396-16.866,17.742-29.462     c-0.652-12.583-8.44-22.932-20.328-27.01c-22.177-7.597-40.35-21.8-53.113-39.606l159.482-155.632     C440.048,124.014,440.125,117.683,436.268,113.73z"/><path style="fill:#283954;" d="M171.842,487.192c-9.958,0.678-19.981-0.342-29.756-3.015     c-59.633-16.39-104.155-63.776-118.413-121.341c-12.098-48.86,18.958-98.842,69.226-111.415     c24.374-6.088,44.428-25.046,51.345-50.104c4.137-14.947,11.83-28.776,22.249-39.991c3.759-4.047,3.526-10.374-0.52-14.133     s-10.374-3.526-14.133,0.52c-12.592,13.555-21.885,30.246-26.874,48.277c-4.829,17.494-18.911,31.53-36.917,36.028     c-60.163,15.05-98.864,74.742-83.79,135.626c16.033,64.723,66.045,117.547,132.54,135.822     c11.924,3.259,24.144,4.504,36.391,3.681c5.51-0.372,9.676-5.141,9.304-10.651C182.121,490.986,177.383,486.819,171.842,487.192z     "/></g><path style="fill:#DC5461;" d="M508.163,43.571l-35.08-35.947c-3.205-3.285-8.233-3.967-12.197-1.652L389.338,47.72    c-3.034,1.77-4.916,5.002-4.959,8.515l-0.347,28.41c-0.032,2.652,0.99,5.208,2.842,7.106l35.08,35.947    c1.853,1.897,4.383,2.982,7.035,3.015l28.41,0.348c0.041,0.001,0.081,0.001,0.123,0.001c3.465,0,6.688-1.796,8.511-4.751    l43.484-70.507C511.926,51.899,511.367,46.855,508.163,43.571z M451.982,110.994l-18.607-0.228l-29.294-30.019l0.227-18.607    l59.914-34.96l24.174,24.771L451.982,110.994z"/></g></g><g id="Layer_1"/></svg>